HIERARCHY
ROOT Hips
{
	OFFSET 0.000000 0.000000 0.000000
	CHANNELS 6 Xposition Yposition Zposition Xrotation Yrotation Zrotation
	JOINT LeftUpLeg
	{
		OFFSET 3.102150 0.000000 0.000000
		CHANNELS 6 Xposition Yposition Zposition Xrotation Yrotation Zrotation
		JOINT LeftLeg
		{
			OFFSET 0.000000 -0.000001 -16.833309
			CHANNELS 6 Xposition Yposition Zposition Xrotation Yrotation Zrotation
			JOINT LeftFoot
			{
				OFFSET 0.000000 -0.000001 -15.538792
				CHANNELS 6 Xposition Yposition Zposition Xrotation Yrotation Zrotation
				JOINT LeftToeBase
				{
					OFFSET 0.000000 -5.872970 -1.573662
					CHANNELS 6 Xposition Yposition Zposition Xrotation Yrotation Zrotation
					End Site
					{
						OFFSET 0.000000 -2.952750 0.000000
					}
				}
			}
		}
	}
	JOINT RightUpLeg
	{
		OFFSET -3.102150 0.000000 0.000000
		CHANNELS 6 Xposition Yposition Zposition Xrotation Yrotation Zrotation
		JOINT RightLeg
		{
			OFFSET 0.000000 -0.000001 -16.833309
			CHANNELS 6 Xposition Yposition Zposition Xrotation Yrotation Zrotation
			JOINT RightFoot
			{
				OFFSET 0.000000 -0.000001 -15.538792
				CHANNELS 6 Xposition Yposition Zposition Xrotation Yrotation Zrotation
				JOINT RightToeBase
				{
					OFFSET 0.000000 -5.872970 -1.573662
					CHANNELS 6 Xposition Yposition Zposition Xrotation Yrotation Zrotation
					End Site
					{
						OFFSET 0.000000 -2.952750 0.000000
					}
				}
			}
		}
	}
	JOINT Spine
	{
		OFFSET 0.000000 0.000000 0.039370
		CHANNELS 6 Xposition Yposition Zposition Xrotation Yrotation Zrotation
		JOINT Spine1
		{
			OFFSET 0.000000 0.000001 8.310460
			CHANNELS 6 Xposition Yposition Zposition Xrotation Yrotation Zrotation
			JOINT Neck
			{
				OFFSET 0.000000 0.000000 6.254630
				CHANNELS 6 Xposition Yposition Zposition Xrotation Yrotation Zrotation
				JOINT Head
				{
					OFFSET 0.000000 0.000001 8.608170
					CHANNELS 6 Xposition Yposition Zposition Xrotation Yrotation Zrotation
					End Site
					{
						OFFSET 0.000000 0.000000 4.527550
					}
				}
			}
			JOINT LeftShoulder
			{
				OFFSET 0.000000 0.000000 6.254630
				CHANNELS 6 Xposition Yposition Zposition Xrotation Yrotation Zrotation
				JOINT LeftArm
				{
					OFFSET 7.448570 -0.000000 -0.000030
					CHANNELS 6 Xposition Yposition Zposition Xrotation Yrotation Zrotation
					JOINT LeftForeArm
					{
						OFFSET 10.735449 -0.000000 -0.000040
						CHANNELS 6 Xposition Yposition Zposition Xrotation Yrotation Zrotation
						JOINT LeftHand
						{
							OFFSET 10.158400 -0.000000 -0.000040
							CHANNELS 6 Xposition Yposition Zposition Xrotation Yrotation Zrotation
							JOINT LeftHandThumb
							{
								OFFSET 0.000000 0.000000 0.000000
								CHANNELS 6 Xposition Yposition Zposition Xrotation Yrotation Zrotation
								End Site
								{
									OFFSET 0.000000 -3.937000 0.000000
								}
							}
							JOINT L_Wrist_End
							{
								OFFSET 3.937000 -0.000000 -0.000010
								CHANNELS 6 Xposition Yposition Zposition Xrotation Yrotation Zrotation
								End Site
								{
									OFFSET 0.000000 0.000000 0.100000
								}
							}
						}
					}
				}
			}
			JOINT RightShoulder
			{
				OFFSET 0.000000 0.000000 6.254630
				CHANNELS 6 Xposition Yposition Zposition Xrotation Yrotation Zrotation
				JOINT RightArm
				{
					OFFSET -7.448570 -0.000000 -0.000030
					CHANNELS 6 Xposition Yposition Zposition Xrotation Yrotation Zrotation
					JOINT RightForeArm
					{
						OFFSET -10.735449 -0.000000 -0.000040
						CHANNELS 6 Xposition Yposition Zposition Xrotation Yrotation Zrotation
						JOINT RightHand
						{
							OFFSET -10.158400 -0.000000 -0.000040
							CHANNELS 6 Xposition Yposition Zposition Xrotation Yrotation Zrotation
							JOINT RightHandThumb
							{
								OFFSET 0.000000 0.000000 0.000000
								CHANNELS 6 Xposition Yposition Zposition Xrotation Yrotation Zrotation
								End Site
								{
									OFFSET 0.000000 -3.937000 0.000000
								}
							}
							JOINT R_Wrist_End
							{
								OFFSET -5.393688 -0.000000 -0.000020
								CHANNELS 6 Xposition Yposition Zposition Xrotation Yrotation Zrotation
								End Site
								{
									OFFSET 0.000000 0.000000 0.100000
								}
							}
						}
					}
				}
			}
		}
	}
}
MOTION
Frames: 5
Frame Time: 0.041667
-7.003800 6.983303 34.595699 12.898621 28.757531 -67.938532 3.102149 -0.000001 0.000003 4.732270 -20.895909 -0.943453 0.000001 0.000000 -16.833307 25.285301 0.000000 0.000003 0.000001 -0.000003 -15.538791 -10.298965 21.660664 -4.133329 -0.000001 -5.872971 -1.573662 -2.435000 0.000000 0.000000 -3.102151 0.000000 0.000000 -83.919536 23.037489 -6.299053 0.000000 0.000004 -16.833309 5.220901 0.000000 -0.000001 -0.000000 0.000003 -15.538793 1.522521 5.234133 -10.349129 0.000000 -5.872967 -1.573653 2.214503 -0.000000 0.000001 0.000000 0.000000 0.039371 2.937907 4.811698 -5.664728 -0.000000 -0.000001 8.310463 23.968006 -24.297006 0.427027 -0.000000 0.000000 6.254632 32.769055 -5.402488 0.122745 0.000000 0.000003 8.608172 -29.101172 -0.542055 3.381152 -0.000000 0.000001 6.254632 0.710585 -24.310233 -27.342644 7.448573 0.000002 -0.000023 90.298748 143.709912 -164.489233 10.735448 -0.000005 -0.000040 -0.000259 0.000281 -108.368499 10.158405 -0.000000 -0.000039 -20.138763 -26.131940 5.194746 0.000004 -0.000000 0.000001 0.000002 -0.000000 0.000000 3.937008 -0.000000 -0.000009 0.000001 -0.000000 0.000000 0.000000 0.000001 6.254632 23.504839 13.321855 4.245544 -7.448570 -0.000000 -0.000027 -100.489288 -99.721179 -110.162222 -10.735446 0.000002 -0.000041 -0.000001 0.000004 12.569005 -10.158401 -0.000000 -0.000042 -28.716649 -25.587588 24.346535 0.000000 0.000001 0.000002 0.000001 0.000001 -0.000001 -5.393688 0.000001 -0.000020 -0.000000 -0.000000 -0.000000 
-7.253000 6.961503 34.620098 12.569998 29.035001 -66.699352 3.102150 -0.000001 -0.000001 4.815439 -21.278023 -0.730926 -0.000000 -0.000000 -16.833307 25.642200 0.000001 0.000002 0.000000 -0.000003 -15.538789 -10.115886 21.754281 -5.558482 -0.000001 -5.872971 -1.573663 -2.482897 0.000000 0.000002 -3.102151 -0.000001 0.000000 -89.153592 24.957962 -2.020662 -0.000000 -0.000004 -16.833311 7.859202 -0.000001 -0.000001 -0.000001 0.000001 -15.538780 0.276152 7.638789 -12.500505 0.000000 -5.872974 -1.573665 2.755603 -0.000000 0.000000 -0.000000 -0.000001 0.039368 3.298268 4.900332 -6.078301 -0.000002 0.000000 8.310457 24.857041 -25.357682 0.461245 0.000000 -0.000000 6.254628 32.263860 -5.325179 -0.166318 0.000000 0.000007 8.608169 -30.170489 0.216537 3.747926 0.000000 0.000000 6.254628 0.408868 -23.954488 -27.681898 7.448571 0.000002 -0.000030 89.391364 143.412498 -163.814752 10.735447 0.000001 -0.000041 -0.000258 0.000286 -109.079596 10.158400 0.000001 -0.000040 -19.506506 -26.698064 5.336775 0.000004 -0.000000 0.000000 0.000001 -0.000000 -0.000000 3.937000 0.000001 -0.000009 0.000001 -0.000000 0.000000 0.000001 0.000001 6.254628 23.646021 13.130493 3.892624 -7.448572 -0.000001 -0.000023 -99.143959 -100.112234 -109.004676 -10.735450 -0.000001 -0.000039 0.000001 0.000004 12.986999 -10.158400 -0.000001 -0.000039 -29.274143 -26.829488 22.950122 0.000002 -0.000000 -0.000001 0.000001 0.000000 0.000000 -5.393684 -0.000000 -0.000020 0.000001 -0.000001 0.000000 
-7.515100 6.941902 34.648899 12.079263 29.068189 -65.313957 3.102149 -0.000000 0.000000 4.742388 -21.510299 -0.411024 -0.000000 -0.000001 -16.833307 25.913599 0.000000 -0.000001 0.000001 -0.000003 -15.538795 -9.771793 21.721098 -7.174949 0.000000 -5.872970 -1.573663 -2.564099 0.000001 0.000001 -3.102150 0.000000 -0.000002 -94.888321 26.710269 2.661137 0.000000 -0.000000 -16.833305 10.797896 0.000000 0.000000 -0.000002 0.000002 -15.538786 -0.204621 10.047182 -12.971211 0.000001 -5.872970 -1.573659 2.919204 -0.000000 -0.000000 -0.000001 -0.000000 0.039370 3.365779 5.182150 -6.333494 -0.000001 -0.000000 8.310465 25.734042 -26.357213 0.533459 0.000000 0.000000 6.254627 31.744592 -5.451229 -0.755918 0.000000 0.000001 8.608174 -31.142770 0.781520 4.176688 -0.000000 0.000001 6.254627 0.267934 -23.719821 -28.053899 7.448568 0.000002 -0.000031 88.498467 142.908321 -163.390201 10.735450 -0.000006 -0.000040 -0.000165 0.000265 -109.506695 10.158400 0.000002 -0.000040 -18.950035 -27.188570 5.223509 -0.000006 -0.000001 0.000001 -0.000001 -0.000000 -0.000000 3.936993 -0.000001 -0.000008 0.000001 0.000000 -0.000000 0.000001 0.000001 6.254627 23.760700 12.861023 3.465645 -7.448571 0.000000 -0.000027 -97.422840 -100.581557 -107.449066 -10.735447 0.000002 -0.000039 -0.000098 0.000002 13.387799 -10.158405 0.000001 -0.000040 -29.689999 -28.189842 21.523504 0.000002 -0.000000 0.000000 0.000000 -0.000001 -0.000000 -5.393685 -0.000000 -0.000020 -0.000000 -0.000001 -0.000000 
-7.832200 6.869602 34.694901 11.355451 29.363028 -63.467279 3.102151 -0.000002 0.000002 5.069695 -21.719283 -0.268888 0.000001 -0.000001 -16.833311 25.985101 -0.000000 -0.000000 0.000001 -0.000003 -15.538791 -9.396565 21.812954 -8.848052 -0.000000 -5.872970 -1.573661 -2.306798 0.000001 0.000002 -3.102149 -0.000003 0.000001 -101.997940 28.962557 3.484525 -0.000000 -0.000003 -16.833307 16.264499 -0.000000 0.000000 0.000001 -0.000008 -15.538786 -2.152406 13.102866 -7.225896 0.000001 -5.872970 -1.573667 3.059401 -0.000000 0.000000 -0.000000 -0.000003 0.039372 3.293057 5.186815 -6.729482 -0.000000 -0.000002 8.310460 26.881034 -26.918317 0.330293 0.000000 -0.000000 6.254628 31.183369 -5.673234 -1.393024 0.000001 0.000002 8.608172 -32.046302 1.135805 4.616311 -0.000001 0.000000 6.254628 0.146057 -23.592264 -28.227451 7.448569 0.000002 -0.000031 87.687423 142.041461 -162.906186 10.735451 -0.000003 -0.000041 -0.000162 0.000267 -109.921697 10.158398 -0.000000 -0.000039 -18.665778 -27.138223 5.270859 -0.000004 -0.000000 -0.000000 0.000003 0.000000 -0.000000 3.936996 -0.000000 -0.000010 0.000002 -0.000000 -0.000000 0.000000 -0.000001 6.254629 23.654533 12.436934 3.212566 -7.448571 -0.000001 -0.000031 -95.707172 -101.020431 -106.048044 -10.735451 -0.000001 -0.000042 -0.000100 0.000003 13.805000 -10.158403 -0.000001 -0.000041 -28.799858 -29.453002 20.021989 0.000002 0.000000 0.000001 -0.000000 -0.000000 -0.000000 -5.393688 0.000000 -0.000020 -0.000000 0.000000 0.000000 
-8.149600 6.817402 34.737000 10.580919 29.286635 -61.768577 3.102152 -0.000000 -0.000002 5.162957 -21.792233 0.149918 0.000000 -0.000002 -16.833311 25.996103 -0.000001 -0.000003 -0.000001 -0.000003 -15.538794 -8.805075 21.979383 -10.638347 -0.000001 -5.872971 -1.573661 -2.354699 0.000002 0.000003 -3.102150 -0.000002 -0.000000 -108.692953 30.283778 7.834494 0.000000 -0.000003 -16.833305 19.794301 -0.000000 0.000000 -0.000000 -0.000003 -15.538791 -2.234978 14.988661 -3.447116 -0.000001 -5.872968 -1.573661 2.735602 0.000001 0.000000 0.000002 -0.000000 0.039367 3.075396 5.427876 -7.035002 -0.000002 0.000000 8.310460 27.697109 -27.354981 0.078140 -0.000000 0.000000 6.254635 30.630800 -5.919909 -2.029427 -0.000000 0.000005 8.608167 -32.645087 1.263676 5.051032 -0.000000 0.000001 6.254636 0.161944 -23.666307 -28.137967 7.448569 -0.000001 -0.000026 86.889999 140.852926 -162.241554 10.735447 -0.000002 -0.000039 -0.000158 0.000276 -110.175295 10.158394 -0.000002 -0.000044 -18.203398 -27.390857 5.431243 -0.000006 -0.000001 -0.000001 0.000001 -0.000000 0.000000 3.936996 -0.000001 -0.000011 0.000001 -0.000000 0.000000 -0.000000 0.000001 6.254636 23.757749 12.110133 3.077144 -7.448573 0.000002 -0.000031 -93.558873 -101.667673 -103.972589 -10.735451 0.000002 -0.000039 -0.000100 0.000000 14.074500 -10.158404 -0.000002 -0.000040 -28.884522 -30.381989 19.005099 0.000004 0.000000 0.000001 0.000000 0.000001 -0.000000 -5.393684 0.000000 -0.000019 -0.000000 -0.000000 -0.000000 
